<?xml version="1.0" standalone="no"?><!DOCTYPE svg PUBLIC "-//W3C//DTD SVG 1.1//EN" "http://www.w3.org/Graphics/SVG/1.1/DTD/svg11.dtd"><svg t="1585251977446" class="icon" viewBox="0 0 1024 1024" version="1.1" xmlns="http://www.w3.org/2000/svg" p-id="4221" xmlns:xlink="http://www.w3.org/1999/xlink" width="200" height="200"><defs><style type="text/css"></style></defs><path d="M645.9 984.7c-13.9 0-24.4-13-32.9-23.5-2.8-3.5-7-8.6-9.1-10-13.6 10.5-34.2 16.7-55.3 16.7-21 0-39.5-6-52.2-16.8l-0.1-0.1c-2.8 0-10.1 7.7-14.5 12.3-7.2 7.6-14.7 15.5-22.6 17.2-1.7 0.4-3.4 0.5-5 0.5-16.2 0-24.9-16.1-33.3-31.6-2.8-5.2-5.7-10.5-8.7-15-34.8-51.4-30.3-133.9-24.5-178.5 8.3-64.2 29.2-131 53.3-170.2l1.7-2.7 183 1.9 1.7 2.4c39.3 57.8 62.1 113.5 69.6 170.2 6.6 50.2 1.8 102.8-15.3 165.6-11.5 42.4-22.4 61.3-35.2 61.5l-0.6 0.1z" fill="#EFEEED" p-id="4222"></path><path d="M445.5 588.7l176.9 1.9c80.9 119 84.3 218 53.6 331.1-5.5 20.2-16.7 57.2-29.9 57.3h-0.2c-19 0-33.1-33.8-42.3-33.8-0.8 0-1.6 0.3-2.4 0.9-12.9 10.3-32.8 16.1-52.6 16.1-18.1 0-36.1-4.8-48.6-15.5-1.2-1-2.4-1.4-3.7-1.4-10.5 0-25.9 27-38.3 29.6-1.4 0.3-2.7 0.4-3.9 0.4-17.6 0-25.5-26.5-37.4-44.1-56.3-82.8-16.6-268.5 28.8-342.5m-6.3-11.3l-3.3 5.4c-24.4 39.8-45.7 107.5-54.1 172.4-4.7 36.2-5.4 69.6-2 99.3 3.9 34.1 13.1 62 27.4 83.1 2.9 4.3 5.6 9.3 8.5 14.5 4.1 7.6 8.4 15.4 13.6 21.6 7.2 8.5 15.5 12.9 24.7 12.9 2 0 4.1-0.2 6.2-0.6 9.6-2 17.7-10.5 25.5-18.8 2.8-2.9 7-7.4 9.8-9.5 13.6 10.3 32.2 15.9 53 15.9 20.5 0 40.5-5.6 54.8-15.1 1.7 1.9 3.7 4.4 5.3 6.3 8.7 10.8 20.7 25.6 37.3 25.6h0.3c14.3-0.2 22.8-16 28-27.9 4.2-9.6 8.3-21.9 12.6-37.7 17.3-63.5 22.1-116.8 15.4-167.8-7.6-57.6-30.7-114.1-70.5-172.6l-3.3-4.9-5.9-0.1-176.9-1.9-6.4-0.1z" fill="" p-id="4223"></path><path d="M670.6 903.5c26.9-112.7 12.5-211.3-58.3-329.8l-154.8-1.9c-39.7 73.7-77 265.3-27.8 347.8 10.5 17.6 15.9 40.9 31.3 40.9 11.1 0 31.7-33.4 40.9-33.5 3.8 0 17.8 20.6 42.5 20.2 33.2-0.5 43.8-19.9 51.5-20.3 8.1-0.4 29.4 33.6 46 33.6 16.5 0 23.9-36.9 28.7-57z" fill="#FFFFFF" p-id="4224"></path><path d="M610.1 763.1c-6.4 41.7-19 94.7-68.7 94.5-53.4-0.3-69-63.7-71.8-103.9-2.8-39.3 6.8-73 68.9-73 68.3 0.1 78.1 40.6 71.6 82.4z" fill="#FFC239" p-id="4225"></path><path d="M582.6 259.7c7-70.2 42.3-164 69.9-207.9 6-9.6 19.8-9.2 23.3 1.5 17.1 51.2 44.4 165.8-6 273.7-39.6-64.9-87.2-67.3-87.2-67.3z" fill="#FFFFFF" p-id="4226"></path><path d="M670.5 338.9L665 330c-37.6-61.7-82.2-64.6-82.7-64.7l-5.9-0.3 0.6-5.9c6.9-69.5 42.1-164.8 70.7-210.3 4.1-6.6 11.5-10.3 18.9-9.4 6.9 0.8 12.3 5.4 14.6 12.1 8.8 26.4 19.9 68.2 22.6 117 3.2 58.8-6.5 112.9-28.8 160.8l-4.5 9.6z m-81.7-84c13.7 2.7 48.5 13.8 80.1 60.4 18.6-43.8 26.5-92.9 23.6-146-2.6-47.6-13.4-88.3-22-114.1-1.2-3.5-3.8-4.4-5.3-4.5-2.4-0.3-5.8 0.7-8 4.2-27.1 43.1-60.5 132.6-68.4 200z" fill="" p-id="4227"></path><path d="M612.5 265.2c2.8-12.9 9.6-72.9 26.1-79.2 25.8-10 7.9 107.7 2.1 101.4" fill="#FF9640" p-id="4228"></path><path d="M641.1 293.2c-1.7 0-3.4-0.7-4.6-2.1-2.1-2.3-1.9-5.8 0.4-7.9 0.4-0.3 0.8-0.6 1.2-0.8 1.9-5.1 5.6-21.5 7.4-43.3 2.5-29-0.3-43.7-3.4-47.5-0.5-0.6-0.6-0.7-1.6-0.3-1.5 0.6-6.7 4-12.6 24.8-3.8 13.6-6.5 29.6-8.2 40.1-0.7 4.5-1.3 8-1.8 10.3-0.7 3-3.6 5-6.7 4.3-3-0.7-5-3.6-4.3-6.7 0.4-2 1-5.5 1.7-9.8 5.6-33.9 12.4-67.5 27.8-73.5 6.6-2.6 12.7-0.1 16.3 6.6 6.8 12.8 5.1 41.7 3.4 57.8-1.1 10.5-2.7 20.9-4.5 29.3-2.9 13.7-5 16.1-7 17.5-0.9 0.8-2.2 1.2-3.5 1.2z" fill="" p-id="4229"></path><path d="M389.9 322.1s-88.8-40.7-87.1-251.8c0.1-9.4 10.6-15 18.6-10.2 31 18.8 94.3 72.4 120.4 205.3" fill="#FFFFFF" p-id="4230"></path><path d="M387.6 327.2c-1-0.4-24-11.3-46.6-49-13.1-21.7-23.4-48-30.7-78.2-9.1-37.5-13.5-81.1-13.1-129.7 0.1-6.4 3.4-12.1 9.1-15.2 5.7-3.2 12.5-3.1 18.1 0.3 16.1 9.8 40.3 28.4 63.7 61.4 27.8 39.2 47.7 88.8 59.3 147.5l-11 2.2C425.2 209.3 405.9 161.2 379 123.3c-22.3-31.5-45.2-49.1-60.4-58.3-2.1-1.3-4.6-1.3-6.8-0.1-1 0.6-3.3 2.2-3.3 5.5-0.5 59 6.4 141.8 41.5 201.1 20.9 35.2 42.1 45.5 42.3 45.6l-4.7 10.1z" fill="" p-id="4231"></path><path d="M400 308.2c-14.5-22.6-24.1-48-27.7-79.8-3.3-28.5 12.4-26.4 22.1-11.7 13.4 20.4 13.9 30.2 29.7 61.5" fill="#FF9640" p-id="4232"></path><path d="M400 313.8c-1.9 0-3.7-0.9-4.7-2.6-15.9-24.8-25-50.9-28.6-82.2-2.2-19.4 3.8-25.8 9.3-27.8 7.4-2.7 16.4 2.2 23.1 12.4 8 12.2 11.6 20.8 16.2 31.8 3.4 8.1 7.2 17.2 13.8 30.3 1.4 2.8 0.3 6.1-2.5 7.5s-6.1 0.3-7.5-2.5c-6.8-13.4-10.8-23.2-14.1-31-4.5-10.8-7.8-18.6-15.2-29.9-4.4-6.6-8.8-8.4-9.9-8-0.8 0.3-3.3 3.8-1.9 16 3.4 29.5 11.9 54.1 26.9 77.4 1.7 2.6 0.9 6.1-1.7 7.8-1.1 0.5-2.2 0.8-3.2 0.8z" fill="" p-id="4233"></path><path d="M362.7 432.7c-13.2 48-38.7 106.6 36.8 139.7 75.5 33.2 177 42.2 249.7 7.8 53.6-25.4 98.2-60.5 54.2-173.7-42.4-109-54.2-146.4-177-154.2-160.7 0-149.1 127-163.7 180.4z" fill="#FFFFFF" p-id="4234"></path><path d="M541.5 607.7c-5.4 0-10.9-0.1-16.4-0.4-43.6-2.1-89-12.7-127.9-29.7-73.2-32.2-56.9-88.2-43.7-133.2 1.3-4.6 2.6-8.9 3.8-13.2 2.3-8.5 4-19.3 5.8-30.8 4.8-30.6 10.8-68.7 33.1-99.5 26.3-36.5 68.9-54.2 130.1-54.2h0.4c123.7 7.9 138.8 46.8 179.2 150.7l2.7 7c46.6 119.8-5 156.2-57 180.8-31.2 14.8-68.9 22.5-110.1 22.5zM368.1 434.1c-1.2 4.4-2.5 9-3.8 13.4-13.1 45-26.7 91.6 37.5 119.8 37.6 16.5 81.6 26.8 123.9 28.8 45.7 2.2 87.6-5 121.1-20.9 24.6-11.7 49-25.9 61-51.2 13-27.5 9.9-65.2-9.6-115.3l-2.7-7c-20-51.5-33.2-85.5-55.9-107.6-22.5-21.9-55.3-32.3-113.4-36-57.3 0-96.8 16.2-120.8 49.5-20.7 28.6-26.4 65.2-31.1 94.6-2 11.7-3.7 22.9-6.2 31.9z" fill="" p-id="4235"></path><path d="M401.5 567.8c42.9 18.8 92.6 29.2 140 29.2 39.5 0 76-7.3 105.5-21.3 24.7-11.7 49.9-25.7 61.3-51.5 4.5-10.3 6.7-22 6.8-35.2-24.8 43.9-58.6 89.8-180.6 94.1-104.9 3.6-152.3-72.9-172.7-127.1-12.2 42.5-21 85.2 39.7 111.8z" fill="#EFEEED" p-id="4236"></path><path d="M630.3 456.8c32.2 2.4 59.7 2.6 81.8 1.7-2.7-15-7.3-31.7-13.4-50.1l-2.7-7c-20-51.6-33.2-85.7-56-107.8-22.6-22-55.6-32.5-113.8-36.2-11.9 0-23.1 0.7-33.5 2.2 29 80.5 56.9 191.1 137.6 197.2z" fill="#FFC239" p-id="4237"></path><path d="M435.2 440.3a21.2 17.5 90 1 0 35 0 21.2 17.5 90 1 0-35 0Z" fill="" p-id="4238"></path><path d="M525 568.6c14.1 0.5 30-21.5 44-43.9 4.4 19.2 13.8 21.5 13.8 21.5s14.8-6.6 17.6-21.5c0.1 28.8 1.6 28.8 9.6 33s21.7 3.6 28.8-11.5c-12.5 27-16.4 42.5-16.4 42.5" fill="#1D7F0B" p-id="4239"></path><path d="M622.3 594.3c-0.5 0-0.9-0.1-1.4-0.2-3-0.8-4.8-3.8-4.1-6.8 0.1-0.5 2.1-8.3 7.6-22.2-5.8 1.2-12 0.4-17.2-2.4l-0.6-0.3c-7.3-3.9-10.2-7.1-11.3-18.1-5 4.7-9.9 6.9-10.3 7.1-1.1 0.5-2.4 0.6-3.6 0.3-1-0.3-8.4-2.5-14-14.1-13.5 20.4-27.9 37.2-42.6 36.6-3.1-0.1-5.5-2.7-5.4-5.8s2.8-5.5 5.8-5.4h0.3c13 0 32.3-31 38.7-41.2 1.2-1.9 3.4-2.9 5.7-2.6 2.2 0.4 4 2.1 4.5 4.3 2.3 10.3 6.1 14.6 8.3 16.4 3.6-2.3 10.5-7.6 12-16.1 0.5-2.9 3.1-4.8 6-4.6 2.9 0.3 5.1 2.7 5.1 5.6 0 11.8 0.3 19.9 1.5 23.7 0.6 1.9 1 2.2 4.5 4l0.7 0.3c3.3 1.8 7.4 2.1 11 0.9 4.2-1.4 7.6-4.7 10-9.9 1.3-2.8 4.7-4 7.5-2.7s4 4.6 2.7 7.5c-12.1 26.1-16 41.3-16.1 41.5-0.5 2.5-2.8 4.2-5.3 4.2z" fill="" p-id="4240"></path><path d="M525 569.3c-10.1 53.8-27.8 231.3-7.1 241.5s104.2-197.7 104.4-225c-32.4-13.3-61.7-19.3-97.3-16.5z" fill="#FF9640" p-id="4241"></path><path d="M519.5 816.8c-1.7 0-3-0.4-4.1-1-7.1-3.5-10.8-15.3-12.2-39.2-1-17.8-0.7-41.5 1.1-70.6 3.2-53.9 10.2-111.2 15.2-137.8 0.5-2.5 2.5-4.4 5.1-4.6 34.4-2.8 64.2 2.3 99.9 16.9 2.1 0.9 3.5 3 3.5 5.2-0.1 14.9-20.8 71.8-40.2 117.7-15.6 37-44.5 100.6-61.8 111.3-2.6 1.6-4.7 2.1-6.5 2.1z m10.3-242.2c-4.8 27.3-11.1 80.2-14.2 130.4-5 81.6 2.3 97.4 4.3 100.2 2-1.2 8.5-6.6 21.9-31 9.9-17.9 21.5-42.3 33.5-70.5 22.4-52.5 38.2-98.7 40.9-114.4-30.6-11.9-57-16.5-86.4-14.7z" fill="" p-id="4242"></path><path d="M612.8 440.3a21.2 17.5 90 1 0 35 0 21.2 17.5 90 1 0-35 0Z" fill="" p-id="4243"></path><path d="M526.4 516.2c-8.2 0-14.8-6.8-20.2-13.6-1.9-2.4-1.6-6 0.9-7.9 2.4-1.9 6-1.6 7.9 0.9 5 6.3 8.9 9.4 11.5 9.4 1.8 0 5-1.7 10.3-9.1 1-1.4 2.5-2.2 4.2-2.3 1.7-0.1 3.3 0.5 4.5 1.8 5.6 6 11.2 9 13.4 8.4 1.2-0.3 2.4-2.6 3.2-5.9 0.7-3 3.8-4.9 6.8-4.2 3 0.7 4.9 3.8 4.2 6.8-2.4 9.8-7.4 13.1-11.3 14.1-7.2 1.9-14.6-2.7-19.8-7.1-4 4.6-9.1 8.6-15.2 8.8-0.1-0.1-0.3-0.1-0.4-0.1z" fill="" p-id="4244"></path><path d="M625.5 643.3s-82.5 72.8-59 85.9c8.5 4.7 85.7-31.3 85.7-31.3" fill="#FFFFFF" p-id="4245"></path><path d="M568.6 735.2c-2.6 0-3.8-0.6-4.8-1.2-4.1-2.3-6.5-5.9-7-10.5-1.6-14.5 17.6-36.9 32.1-52.5 16.1-17.2 32.7-31.9 32.8-32 2.3-2.1 5.9-1.8 7.9 0.5s1.8 5.9-0.5 7.9c-0.2 0.1-16.4 14.5-32.1 31.3-28.2 30.1-29.4 40.9-29.1 43.5 0.1 0.8 0.3 1.2 0.9 1.6h0.4c8.5 0 47.8-15.9 80.7-31.3 2.8-1.3 6.2-0.1 7.5 2.7s0.1 6.2-2.7 7.5c-0.2 0.1-19.6 9.2-39.9 17.5-29.2 12.3-40.8 15-46.2 15z" fill="" p-id="4246"></path><path d="M435.3 717.9s91.9 56.7 103.7 32.5c4.3-8.8-91.4-87.7-91.4-87.7" fill="#FFFFFF" p-id="4247"></path><path d="M526.6 762c-29.6 0-87.2-35-94.3-39.3-2.6-1.6-3.5-5.1-1.8-7.7 1.6-2.6 5.1-3.5 7.7-1.8 0.2 0.1 18.2 11.2 39 21.3 35.2 17.1 48.7 17.3 53.6 15.9 1-0.3 1.7-0.7 2.2-1.1-5.1-8.6-38.3-40.3-89-82.2-2.4-2-2.7-5.5-0.8-7.9 2-2.4 5.5-2.7 7.9-0.8 0.2 0.2 24.3 20 47.4 40.7 13.7 12.2 24.4 22.3 31.9 30 12.6 13 15.9 18.8 13.5 23.8-1.9 4-5.4 6.8-10.1 8.2-2.1 0.6-4.5 0.9-7.2 0.9z" fill="" p-id="4248"></path><path d="M531.7 696.4c-11.9 0-19-7.6-19.3-8-1.1-1.2-1-3.1 0.2-4.1 1.2-1.1 3-1 4.1 0.2 0.3 0.4 7.8 8.2 20.1 5.5 1.6-0.3 3.1 0.6 3.5 2.2 0.3 1.6-0.6 3.1-2.2 3.5-2.3 0.5-4.4 0.7-6.4 0.7z" fill="" p-id="4249"></path><path d="M538.4 677.3c-10.8 0-24.7-7.8-25.3-8.2-1.4-0.8-1.9-2.6-1.1-4 0.8-1.4 2.6-1.9 4-1.1 4.4 2.5 17.5 8.7 24.8 7.2 1.6-0.3 3.1 0.7 3.4 2.3 0.3 1.6-0.7 3.1-2.3 3.4-1 0.3-2.2 0.4-3.5 0.4z" fill="" p-id="4250"></path><path d="M543.2 658.3c-10.8 0-24.7-7.8-25.3-8.2-1.4-0.8-1.9-2.6-1.1-4 0.8-1.4 2.6-1.9 4-1.1 4.4 2.5 17.5 8.7 24.8 7.2 1.6-0.3 3.1 0.7 3.4 2.3 0.3 1.6-0.7 3.1-2.3 3.4-1.1 0.3-2.3 0.4-3.5 0.4z" fill="" p-id="4251"></path></svg>